<?xml version="1.0" encoding="utf-8"?>
<!-- Generator: Adobe Illustrator 27.0.0, SVG Export Plug-In . SVG Version: 6.00 Build 0)  -->
<svg version="1.1" xmlns="http://www.w3.org/2000/svg" xmlns:xlink="http://www.w3.org/1999/xlink" x="0px" y="0px"
	 viewBox="0 0 346.92 380.57" style="enable-background:new 0 0 346.92 380.57;" xml:space="preserve">
<style type="text/css">
	.st0{display:none;}
	.st1{fill:#146893;}
	.st2{fill:none;stroke:#FFFFFF;stroke-miterlimit:10;}
</style>
<g id="Capa_1" class="st0">
</g>
<g id="Capa_2">
	<path class="st1" d="M174.35,32.57c10.09-2.77,40.62-9.72,74.44,4.39c22.9,9.56,37.06,24.5,43.93,32.89
		c13.63,13.6,20.35,27.23,18.43,33.86c-0.85,2.93-5.06,10.29-7.29,10.29c-2.57,0,30.86,42.43,30.86,42.43s8.93,9.43,6.39,12.86
		c-2.54,3.43-3.39,6-11.54,7.71c-8.14,1.71-9-2.14-14.14,3.43c0,0,11.57,5.57,9.86,10.71c-1.71,5.14-4.71,6.43-3.86,9.43
		s6.43,5.57,7.71,8.14s1.71,6.43-3,12c0,0,7.29,18.86,7.29,27s-4.29,17.14-10.29,19.29S288,265.29,270,261
		c0,0-1.81,0.43-12.05,11.14c0,0-13.67,25.71-17.1,27.43c-3.43,1.71-6.43,5.14-15,5.14c-8.57,0-14.14,0.86-15.43,0
		c0,0,27-25.71,39.43-25.29c0,0-8.14-10.71-15-14.57c0,0-21-20.14-24-27.86c-3-7.71-0.43-23.57,3-37.29
		c3.43-13.71,7.29-40.71-1.29-63.43c-8.57-22.71-36.43-23.57-40.71-28.29c-4.29-4.71,6.86-35.57,11.57-35.14l5.57-0.43
		C189,72.43,190.55,40.71,174.35,32.57z"/>
	<path d="M185.79,69.75c0,0-12.86,16.71-13.82,29.25c-0.96,12.54,16.71,48.12,16.71,48.12s-21.54,2.99-31.18,12.95
		c-9.64,9.96-17.04,18.64-17.68,32.14c-0.64,13.5-0.96,45,7.71,62.04c8.68,17.04-6.43,27-6.43,27l-36,32.14l76.5,23.46l27.64-31.76
		c0,0,12.72,45.9,29.83,61.33l-123.68-11.25c0,0-15.11-55.29-29.25-57.54c0,0-44.36,7.39-52.71,5.79c-8.36-1.61-8.36-0.64-14.46-9
		s0-23.14,0-23.14s5.14-10.61,5.14-13.18c0-2.57-7.07-7.71-4.82-12.21s9-6.43,9-9c0-2.57-5.79-8.68-5.46-11.89
		c0.32-3.21,10.29-5.79,10.93-8.36c0.64-2.57-21.2-0.32-26.19-9.32c0,0,0.47-8.68,6.9-14.14c6.43-5.46,28.29-34.71,28.61-36.32
		c0.32-1.61,4.82-3.72,0.64-9.74s-4.5-4.09-4.5-4.09c1.92-5.87,4.63-12.6,8.52-19.73c6.75-12.36,14.64-21.47,21.05-27.74
		c4.3-3.63,9.23-7.36,14.81-10.96c14.48-9.33,28.49-14.64,39.72-17.76C123.32,66.86,156.21,59.14,185.79,69.75z"/>
	<path class="st2" d="M188.68,71.04c0,0,18-12.21,40.5-6.11s33.75,13.18,45.64,32.14c11.89,18.96,11.25,39.21,9.96,39.86
		c-1.29,0.64-5.46,2.57-5.79,4.82s10.93,31.5,10.29,35.04c-0.64,3.54,2.89,6.43-5.79,6.43c0,0-9-3.86-10.61-2.57
		c-1.61,1.29,3.86,6.75,3.21,7.71c-0.64,0.96-6.43,2.25-5.14,6.11c1.29,3.86,3.21,5.14,3.21,7.07c0,1.93-5.46,3.54-5.79,6.43
		c-0.32,2.89,1.29,14.14-0.96,17.04s-2.79,7.07-11.2,5.79c-8.41-1.29-23.19-14.79-25.12-14.79s-5.79-1.93-11.57,2.89
		c-5.79,4.82-8.52,11.73-9.88,12.13"/>
	<path class="st2" d="M172.61,108.64c0,0-21.32-15.64-62.04-1.61c-1.85,0.64-25.07,6.43-36.32,37.93s-3.21,30.86-3.21,30.86
		s7.07-1.29,0.96,15.11s-9.32,22.5-7.71,26.68c1.61,4.18,14.14-1.93,16.71,0s-4.5,6.11-3.54,8.04s4.5,1.76,4.82,5.38
		c0.32,3.62-4.5,4.58-2.89,7.15c1.61,2.57,6.11,3.21,6.11,8.36c0,5.14-3.21,14.46,3.86,19.61c7.07,5.14,19.29-1.61,23.46-4.82
		c4.18-3.21,11.25-10.93,18.32-8.04c7.07,2.89,16.39,13.71,17.36,14.73"/>
	<path class="st1" d="M302.14,24.75"/>
</g>
</svg>
